# xmcd CD database file
# Copyright (C) 1993-1998 Ti Kan
#
# Track frame offsets:
#  150
#  15247
#  32340
#  44002
#  74397
#  95040
#  111165
#  131905
#  149475
#  168542
#
# Disc length: 2538 seconds
#
# Revision: 1
# Processed by: cddbd v1.4b41PL1 Copyright (c) Steve Scherf et al.
# Submitted via: KiC 2.1 - (C) 1996-1998 Alwin Hoogerdijk
#
DISCID=8e09e80a
DTITLE=Scampground - The Girl Ain't So Pretty - The Girl Ain't So Pretty
DYEAR=1900
DGENRE=
TTITLE0=Mama
TTITLE1=Not That Strong
TTITLE2=I Don't Know, Man
TTITLE3=Love Song - Crayon Morning
TTITLE4=A Better Way
TTITLE5=The Girl Ain't So Pretty
TTITLE6=Glory's Theme
TTITLE7=Me and Bobby McGee
TTITLE8=A Little Worn
TTITLE9=A Father's Word
EXTD=
EXTT0=
EXTT1=
EXTT2=
EXTT3=
EXTT4=
EXTT5=
EXTT6=
EXTT7=
EXTT8=
EXTT9=
PLAYORDER=
